<?xml version="1.0" encoding="UTF-8"?>
<svg id="DISEÑO" xmlns="http://www.w3.org/2000/svg" xmlns:xlink="http://www.w3.org/1999/xlink" viewBox="0 0 369.14 704.57">
  <defs>
    <style>
      .cls-1 {
        fill: #fff;
      }

      .cls-2 {
        clip-path: url(#clippath);
      }

      .cls-3 {
        fill: none;
      }

      .cls-4 {
        fill: #010101;
      }
    </style>
    <clipPath id="clippath">
      <rect class="cls-3" width="369.13" height="704.57"/>
    </clipPath>
  </defs>
  <g class="cls-2">
    <path class="cls-4" d="m359.27,349.33l-20.85,3.34c-5.17.83-9.85-3.26-9.85-8.62V8.73c0-5.38-4.72-9.48-9.91-8.61L9.82,51.92C4.14,52.87-.02,57.9,0,63.78l1.16,351.6c.57,1.17.9,2.49.9,3.91v65.88c0,40.99,35.93,72.21,75.48,65.58l120.22-20.16c5.19-.87,9.91,3.23,9.91,8.61v156.65c0,9.45,12.64,12.15,16.35,3.49l79.71-186.52,64.68-151.36c2.7-6.31-2.48-13.18-9.14-12.11"/>
    <path class="cls-1" d="m179.96,214.7c4.16,7.37,7.83,17.63,10.99,30.79.59-1.55,1.31-4.41,2.14-8.62.79-3.66,1.58-8.54,2.37-14.62.8-6.07,1.26-14.45,1.38-25.15,5.27,9.62,8.97,20.69,11.09,33.2,2.13,12.53,3.55,24.43,4.24,35.74.5,13.44.56,26.82.19,40.16-.91,14.36-2.78,28.36-5.61,41.99-2.83,13.65-6.59,25.58-11.31,35.81-4.71,10.25-9.99,18.28-15.83,24.13-4.67,4.67-9.82,7.07-15.47,7.2-5.61-.69-10.52-3.58-14.73-8.69-5.27-6.39-9.77-14.91-13.5-25.57-3.74-10.65-6.37-22.9-7.9-36.76-1.54-13.85-2.09-27.97-1.65-42.35.88-13.31,2.19-26.63,3.95-39.95,1.75-11.19,4.28-22.9,7.57-35.16,3.29-12.25,8-22.9,14.16-31.96-.88,10.66-1.21,19.05-.99,25.17.22,6.13.55,11.06.99,14.79.43,4.27.88,7.19,1.32,8.79,4.38-12.78,8.99-22.64,13.83-29.56,2.38-3.41,4.65-6.37,6.82-8.88,1.92,2.71,3.91,5.88,5.95,9.51m63.47-135.2c3.96,43.21-8.1,63.14-22.04,73.24-1.49-1.54-2.99-2.94-4.49-4.19-7.69-6.39-13.07-9.32-16.13-8.79-4.39.54-8.79,1.87-13.17,4-3.52,1.6-7.03,4.27-10.53,7.99-.2.21-.39.43-.58.65-.17-.23-.34-.47-.51-.7-3.14-4.05-6.38-7.05-9.74-8.99-4.17-2.54-8.41-4.3-12.73-5.27-3-.82-8.63,1.56-16.89,7.17-4.63,3.15-9.3,7.47-14.01,12.98-13.64-10.26-25.24-30.24-21.34-72.73,0,0-45.36,68.99-2.69,111.86-3.74,8.31-7.36,17.56-10.83,27.77-7.32,21.49-11.77,47.68-13.36,78.56-1.07,20.77.08,40.15,3.46,58.14,3.38,17.99,8.82,33.92,16.34,47.77,4.97,9.15,10.76,17.15,17.38,24.01,4.9,5.62,10.16,10.44,15.78,14.45,10.86,7.75,22.44,11.47,34.75,11.21,12.23,1.47,24.11-1.1,35.64-7.75,5.97-3.44,11.66-7.72,17.06-12.83,7.23-6.18,13.75-13.57,19.55-22.19,8.78-13.05,15.69-28.37,20.74-45.95,5.04-17.58,8-36.76,8.89-57.53,1.31-30.89-.66-57.4-5.93-79.51-3.73-15.66-7.96-29.24-12.69-40.76,43.93-42.81-1.94-112.6-1.94-112.6"/>
  </g>
</svg>